<svg width="700pt" height="700pt" viewBox="0 0 700 700" xmlns="http://www.w3.org/2000/svg" xmlns:xlink="http://www.w3.org/1999/xlink"><path fill="#FFF" d="M413.36 120.14h.07v.168h-.07zM480.31 105.2h44.832v44.832H480.31zM545.43 148.94h44.832v44.832H545.43zM510.8 392.12h44.832v44.832H510.8zM479.08 304.98h44.832v44.832H479.08zM436.05 364.04h44.832v44.832H436.05zM424.21 72.922h44.832v44.832H424.21zM483.09 202.35h44.832v44.832H483.09zM429.41 245.32h44.832v44.832H429.41zM426.44 344.54v-44.855l-44.875.035v44.82z"/><path fill="#FFF" d="M480.55 515.45a469.91 469.91 0 01-16.832-81.27h-50.457v-44.809h-44.82v-44.832h-44.832v-44.828h44.832v-45.234h44.867v-44.625h44.816v-44.84l-44.766-.047V120.31l-44.949-.027v-44.84l44.883-.11V43.56a250.943 250.943 0 00-66.199-11.945c-109.94-5.687-204.09 64.926-201.06 162.31.398 12.855 2.648 31.785 2.594 44.152-.102 43.934-38.113 61.98-38.844 75.965-1.203 22.961 25.77 15.79 35.28 48.27 12.075 41.234-5.25 88.258 50.962 85.352 22.422-.902 58.859-9.601 74.477 4.918 9.957 9.258 17.977 49.664 21.105 67.547l-.004-.003a10.356 10.356 0 0010.227 8.566h168.74c3.262.012 6.34-1.52 8.3-4.125a10.36 10.36 0 001.684-9.117zm-198.84-350.3h-44.832v-44.844h44.832zm44.801-27.703h44.828v44.832h-44.832zm-33.547 105.36v-44.836h44.832v44.836zm56.504 201.98H304.64v-44.84h44.828z"/><use x="70" y="625.625" xlink:href="#prefix__u"/><use x="86.055" y="625.625" xlink:href="#prefix__b"/><use x="96.84" y="625.625" xlink:href="#prefix__a"/><use x="111.68" y="625.625" xlink:href="#prefix__k"/><use x="126.438" y="625.625" xlink:href="#prefix__c"/><use x="136.895" y="625.625" xlink:href="#prefix__a"/><use x="151.73" y="625.625" xlink:href="#prefix__j"/><use x="175.008" y="625.625" xlink:href="#prefix__i"/><use x="190.664" y="625.625" xlink:href="#prefix__h"/><use x="212.539" y="625.625" xlink:href="#prefix__g"/><use x="229.469" y="625.625" xlink:href="#prefix__t"/><use x="236.969" y="625.625" xlink:href="#prefix__f"/><use x="249.934" y="625.625" xlink:href="#prefix__c"/><use x="260.391" y="625.625" xlink:href="#prefix__d"/><use x="275.422" y="625.625" xlink:href="#prefix__b"/><use x="286.207" y="625.625" xlink:href="#prefix__e"/><use x="301.781" y="625.625" xlink:href="#prefix__s"/><use x="309.277" y="625.625" xlink:href="#prefix__a"/><use x="324.117" y="625.625" xlink:href="#prefix__b"/><use x="70" y="647.5" xlink:href="#prefix__r"/><use x="79.516" y="647.5" xlink:href="#prefix__b"/><use x="90.305" y="647.5" xlink:href="#prefix__d"/><use x="105.332" y="647.5" xlink:href="#prefix__q"/><use x="135.742" y="647.5" xlink:href="#prefix__c"/><use x="146.199" y="647.5" xlink:href="#prefix__p"/><use x="161.773" y="647.5" xlink:href="#prefix__a"/><use x="184.223" y="647.5" xlink:href="#prefix__o"/><use x="202.531" y="647.5" xlink:href="#prefix__d"/><use x="217.559" y="647.5" xlink:href="#prefix__e"/><use x="233.133" y="647.5" xlink:href="#prefix__n"/><use x="256.32" y="647.5" xlink:href="#prefix__m"/><use x="272.355" y="647.5" xlink:href="#prefix__b"/><use x="283.141" y="647.5" xlink:href="#prefix__d"/><use x="298.172" y="647.5" xlink:href="#prefix__l"/><use x="305.668" y="647.5" xlink:href="#prefix__a"/><use x="320.504" y="647.5" xlink:href="#prefix__f"/><use x="333.473" y="647.5" xlink:href="#prefix__c"/></svg>