<?xml version="1.0" encoding="UTF-8"?>
<svg width="700pt" height="700pt" version="1.1" viewBox="0 0 700 700" xmlns="http://www.w3.org/2000/svg" xmlns:xlink="http://www.w3.org/1999/xlink">
 
 <g>
  <path fill="#FFFFFF" d="m413.36 120.14h0.070312v0.16797h-0.070312z"/>
  <path fill="#FFFFFF" d="m480.31 105.2h44.832v44.832h-44.832z"/>
  <path fill="#FFFFFF" d="m545.43 148.94h44.832v44.832h-44.832z"/>
  <path fill="#FFFFFF" d="m510.8 392.12h44.832v44.832h-44.832z"/>
  <path fill="#FFFFFF" d="m479.08 304.98h44.832v44.832h-44.832z"/>
  <path fill="#FFFFFF" d="m436.05 364.04h44.832v44.832h-44.832z"/>
  <path fill="#FFFFFF" d="m424.21 72.922h44.832v44.832h-44.832z"/>
  <path fill="#FFFFFF" d="m483.09 202.35h44.832v44.832h-44.832z"/>
  <path fill="#FFFFFF" d="m429.41 245.32h44.832v44.832h-44.832z"/>
  <path fill="#FFFFFF" d="m426.44 344.54v-44.855l-44.875 0.035156v44.82z"/>
  <path fill="#FFFFFF" d="m480.55 515.45c-7.9961-26.539-13.629-53.734-16.832-81.27h-50.457v-44.809h-44.82v-44.832h-44.832v-44.828h44.832v-45.234h44.867v-44.625h44.816v-44.84l-44.766-0.046875v-44.656l-44.949-0.027344v-44.84l44.883-0.10937v-31.773c-21.43-6.9336-43.695-10.953-66.199-11.945-109.94-5.6875-204.09 64.926-201.06 162.31 0.39844 12.855 2.6484 31.785 2.5938 44.152-0.10156 43.934-38.113 61.98-38.844 75.965-1.2031 22.961 25.77 15.789 35.281 48.27 12.074 41.234-5.25 88.258 50.961 85.352 22.422-0.90234 58.859-9.6016 74.477 4.918 9.957 9.2578 17.977 49.664 21.105 67.547l-0.003906-0.003906c0.87109 4.9648 5.1875 8.5781 10.227 8.5664h168.74c3.2617 0.011719 6.3398-1.5195 8.3008-4.125 1.9648-2.6055 2.5898-5.9805 1.6836-9.1172zm-198.84-350.3h-44.832v-44.844h44.832zm44.801-27.703h44.828v44.832h-44.832zm-33.547 105.36v-44.836h44.832v44.836zm56.504 201.98h-44.828v-44.84h44.828z"/>
  <use x="70" y="625.625" xlink:href="#u"/>
  <use x="86.054688" y="625.625" xlink:href="#b"/>
  <use x="96.839844" y="625.625" xlink:href="#a"/>
  <use x="111.679687" y="625.625" xlink:href="#k"/>
  <use x="126.4375" y="625.625" xlink:href="#c"/>
  <use x="136.894531" y="625.625" xlink:href="#a"/>
  <use x="151.730469" y="625.625" xlink:href="#j"/>
  <use x="175.007812" y="625.625" xlink:href="#i"/>
  <use x="190.664062" y="625.625" xlink:href="#h"/>
  <use x="212.539062" y="625.625" xlink:href="#g"/>
  <use x="229.46875" y="625.625" xlink:href="#t"/>
  <use x="236.96875" y="625.625" xlink:href="#f"/>
  <use x="249.933594" y="625.625" xlink:href="#c"/>
  <use x="260.390625" y="625.625" xlink:href="#d"/>
  <use x="275.421875" y="625.625" xlink:href="#b"/>
  <use x="286.207031" y="625.625" xlink:href="#e"/>
  <use x="301.78125" y="625.625" xlink:href="#s"/>
  <use x="309.277344" y="625.625" xlink:href="#a"/>
  <use x="324.117188" y="625.625" xlink:href="#b"/>
  <use x="70" y="647.5" xlink:href="#r"/>
  <use x="79.515625" y="647.5" xlink:href="#b"/>
  <use x="90.304688" y="647.5" xlink:href="#d"/>
  <use x="105.332031" y="647.5" xlink:href="#q"/>
  <use x="135.742188" y="647.5" xlink:href="#c"/>
  <use x="146.199219" y="647.5" xlink:href="#p"/>
  <use x="161.773438" y="647.5" xlink:href="#a"/>
  <use x="184.222656" y="647.5" xlink:href="#o"/>
  <use x="202.53125" y="647.5" xlink:href="#d"/>
  <use x="217.558594" y="647.5" xlink:href="#e"/>
  <use x="233.132812" y="647.5" xlink:href="#n"/>
  <use x="256.320312" y="647.5" xlink:href="#m"/>
  <use x="272.355469" y="647.5" xlink:href="#b"/>
  <use x="283.140625" y="647.5" xlink:href="#d"/>
  <use x="298.171875" y="647.5" xlink:href="#l"/>
  <use x="305.667969" y="647.5" xlink:href="#a"/>
  <use x="320.503906" y="647.5" xlink:href="#f"/>
  <use x="333.472656" y="647.5" xlink:href="#c"/>
 </g>
</svg>
